<svg version="1.2" baseProfile="tiny-ps" xmlns="http://www.w3.org/2000/svg" viewBox="0 0 329 329" width="329" height="329">
	<title>Behairful Partners Logo-ai-svg</title>
	<style>
		tspan { white-space:pre }
		.shp0 { fill: #f7f7f7 } 
	</style>
	<g id="Layer">
		<path id="Layer" fill-rule="evenodd" class="shp0" d="M301.53 125.34C324.02 202.27 280.8 282.3 204.09 305.81C125.53 329.89 41.1 282.07 21.31 202.29C2.27 125.49 47.02 48.34 123.17 26.7C180.62 10.38 243.43 31.89 278.78 79.99C298.9 107.38 291.9 142.21 262.47 161.07C252.56 167.42 241.71 171.54 230.3 174.24C229.23 174.49 227.76 175.42 227.17 173.22C223.45 159.41 213.68 150.9 201.49 144.89C188.3 138.38 174.16 134.96 159.55 133.48C155.07 133.03 150.56 132.8 146.07 132.47C144.87 132.38 143.48 132.68 142.91 131.15C142.31 129.53 142.47 127.94 143.69 126.7C144.54 125.84 145.64 125.19 146.69 124.55C162.6 114.86 178.7 105.43 193.27 93.71C198.64 89.38 204.13 85.18 208.54 79.8C210.45 77.47 212.08 74.96 213.12 72.1C214.99 66.92 213.97 63.3 209.63 59.93C204.59 56.02 198.67 54.07 192.48 53.52C165.63 51.1 140.99 57.58 118.69 72.74C114.95 75.29 111.77 78.52 109.02 82.13C107.79 83.76 106.76 85.52 106.23 87.51C105.8 89.14 106.12 90.61 107.77 91.3C109.48 92.01 111.08 91.71 112.21 90.07C112.41 89.79 112.58 89.46 112.68 89.13C115.22 80.31 121.81 75.07 129.22 70.65C141.84 63.12 155.61 58.95 170.13 57.07C178.52 55.99 186.86 55.8 195.1 58.14C197.58 58.84 199.91 59.87 202.09 61.26C206.51 64.06 207.76 68.62 205.17 73.16C201.84 79.03 196.95 83.53 191.8 87.74C177.17 99.67 161.13 109.51 144.98 119.18C142.11 120.9 142.82 118.27 142.8 117.19C142.66 106.85 142.64 96.5 142.57 86.15C142.55 83.85 142.42 81.56 142.39 79.26C142.36 77.07 141.34 76.08 139.11 76.06C136.88 76.03 135.92 76.96 135.8 79.18C135.32 87.66 135.6 96.15 135.51 104.64C135.45 110.03 135.47 115.43 135.6 120.82C135.67 123.89 134.53 126.03 131.85 127.56C130.02 128.6 128.35 129.95 126.63 131.19C125.54 131.98 125 133.04 125.33 134.41C125.68 135.86 126.79 136.3 128.12 136.39C129.53 136.49 130.94 136.62 132.35 136.63C134.57 136.64 135.57 137.71 135.57 139.9C135.57 144.23 135.64 148.56 135.67 152.89C135.76 165.36 135.87 177.83 135.88 190.3C135.89 192.62 136.84 193.83 139.09 193.91C141.36 193.99 142.12 192.47 142.3 190.5C142.35 189.97 142.33 189.44 142.33 188.91C142.37 180.24 142.37 171.58 142.44 162.91C142.5 155.13 142.66 147.35 142.75 139.57C142.77 137.78 143.05 136.45 145.35 136.55C164.07 137.36 182.22 140.6 198.9 149.58C207.64 154.29 214.84 160.7 218.54 170.3C220.99 176.64 220.87 176.81 214.29 178.11C184.03 184.11 155.24 194.15 128.62 209.9C118.2 216.07 108.79 223.53 101.57 233.4C97.59 238.84 94.99 244.92 94.61 251.72C94 262.67 100.91 272.85 112.11 277.32C123.12 281.71 134.49 281.37 145.75 278.64C164.51 274.09 180.4 264.26 194.08 250.87C208.89 236.37 219.96 219.42 226.32 199.57C228 194.31 228.63 188.87 228.51 183.36C228.45 180.91 229.22 179.65 231.91 179.01C249.11 174.94 264.91 168.02 277.63 155.32C288.67 144.3 294.53 130.93 295.24 115.33C295.31 113.61 295.25 111.89 295.25 110.17C295.49 110.14 295.72 110.12 295.96 110.09C298.29 114.99 300.01 120.14 301.53 125.34ZM162.09 14.53C245.88 14.01 314.61 82.88 314.36 166.6C314.11 250.98 246.42 318.81 162.17 318.78C77.7 318.75 9.99 250.75 10.07 166.02C10.14 82.39 78.24 14.52 162.09 14.53ZM130.93 276.34C139.17 276.15 147.03 274.06 154.45 270.7C185.76 256.53 206.49 232.62 218.17 200.57C219.93 195.75 220.89 190.7 221.15 185.55C221.34 181.88 220.39 181.08 216.85 181.73C216.42 181.81 215.98 181.87 215.55 181.96C195.54 186.2 176.18 192.4 157.59 200.93C143.54 207.37 130.23 214.99 119.22 226.03C112.23 233.03 106.98 241.09 105.47 251.15C103.92 261.4 108.92 270.8 117.7 273.93C121.96 275.45 126.35 276.44 130.93 276.34Z" />
	</g>
</svg>